<svg width="61" height="48" viewBox="0 0 61 48" fill="none" xmlns="http://www.w3.org/2000/svg">
<path d="M6.07294 6.876C10.2819 2.313 16.6509 0 24.9999 0H27.9999V8.457L25.5879 8.94C21.4779 9.762 18.6189 11.379 17.0889 13.752C16.2906 15.0304 15.8379 16.4941 15.7749 18H24.9999C25.7956 18 26.5587 18.3161 27.1213 18.8787C27.6839 19.4413 27.9999 20.2044 27.9999 21V42C27.9999 45.309 25.3089 48 21.9999 48H3.99994C3.20429 48 2.44123 47.6839 1.87862 47.1213C1.31601 46.5587 0.999943 45.7957 0.999943 45V30L1.00894 21.243C0.981943 20.91 0.411943 13.02 6.07294 6.876ZM54.9999 48H36.9999C36.2043 48 35.4412 47.6839 34.8786 47.1213C34.316 46.5587 33.9999 45.7957 33.9999 45V30L34.0089 21.243C33.9819 20.91 33.4119 13.02 39.0729 6.876C43.2819 2.313 49.6509 0 57.9999 0H60.9999V8.457L58.5879 8.94C54.4779 9.762 51.6189 11.379 50.0889 13.752C49.2906 15.0304 48.8378 16.4941 48.7749 18H57.9999C58.7956 18 59.5587 18.3161 60.1213 18.8787C60.6839 19.4413 60.9999 20.2044 60.9999 21V42C60.9999 45.309 58.3089 48 54.9999 48Z" fill="#810102"/>
</svg>
