<svg width="124" height="48" viewBox="0 0 124 48" fill="none" xmlns="http://www.w3.org/2000/svg">
<path d="M22.4083 9.0272C18.5774 8.13332 14.7465 7.75023 10.7878 8.38871C8.87238 8.70795 7.02077 9.41029 5.04146 9.41029C3.89219 9.41029 2.67907 8.38871 1.59364 9.72953C0.69976 10.815 0.69976 12.2196 1.019 13.3689C2.04058 17.3914 1.40209 21.4138 0.827457 25.3086C0.572063 27.1602 1.33825 28.8841 0.891306 30.608C-0.00257471 34.3112 0.380517 37.9506 1.08285 41.59C1.40209 43.1223 2.16828 44.8463 3.95604 45.2932C9.25547 46.6979 14.6826 46.6979 20.1097 45.7401C22.089 45.9955 22.7914 44.7824 22.4721 43.1862C22.089 41.143 20.429 41.3984 18.8966 41.59C14.3634 42.1646 9.83011 42.3562 5.29686 41.4623C5.29686 41.3346 5.29686 41.2069 5.23301 41.0792C4.53068 37.7591 5.04146 34.3751 4.78607 31.055C4.78607 29.9057 4.97762 29.3949 6.50998 29.0118C8.55314 28.501 10.6601 29.3311 12.5756 28.2456C15.2572 28.2456 17.9389 28.1179 20.6205 27.7348C22.6637 27.4794 23.813 26.0748 22.9829 24.6701C22.4083 23.5847 21.259 23.3293 20.1097 23.457C15.3849 23.9678 10.5963 24.4786 5.8715 24.9893C5.04146 24.5424 5.42456 23.7124 5.36071 23.0739C5.29686 20.4561 5.4884 17.966 5.23301 15.5398C5.04146 13.4327 6.12689 13.0497 7.72311 12.8581C12.2564 12.2835 16.7896 12.0919 21.259 13.3051C22.4721 13.6243 23.9406 13.4966 24.3237 11.9004C24.8345 10.2403 23.9406 9.34644 22.4083 9.0272Z" fill="white"/>
<path d="M70.3586 22.8823C69.337 22.1161 68.3154 21.2861 67.8685 20.0729C67.7408 20.0729 67.6131 20.0091 67.5492 20.0091C66.0169 18.796 64.7399 17.2636 62.7606 16.6251C64.1653 17.9659 65.5699 19.2429 66.9746 20.5837C67.9323 21.8607 69.0178 23.01 70.3586 23.9038C71.1886 24.4785 71.8909 25.117 72.7848 25.5639C73.551 25.947 73.7425 25.5639 73.2318 24.8616C71.8909 24.7339 71.5078 23.2654 70.3586 22.8823Z" fill="white"/>
<path d="M58.3551 44.3354C56.6312 44.527 54.9073 44.7185 53.1195 44.91C52.3533 45.0377 51.5233 45.2293 50.7571 45.357C50.1825 44.7185 49.3524 44.7185 48.5862 44.5908C43.3507 43.6331 38.8174 41.5261 35.3696 37.3121C33.071 35.2051 32.241 32.268 31.2194 29.5225C30.6448 26.7132 30.5171 23.84 30.6448 20.9668C30.7086 17.6467 32.241 14.7735 33.518 11.9003C34.9865 9.92102 36.5827 7.94171 38.4343 6.2178C43.5422 2.64228 49.1609 1.17376 55.2903 1.93995C56.9504 2.38689 58.6105 2.76998 60.3344 3.21692C60.8452 4.30235 62.186 3.79156 62.8245 4.68544C63.1437 4.68544 63.5268 4.81313 63.7822 4.62159C64.1653 4.36619 63.7822 4.1108 63.5907 3.9831C62.5691 3.47231 61.6752 2.45074 60.3344 2.76998C59.4405 2.19534 58.5466 1.55686 57.3974 1.42916C55.6096 1.10992 53.758 0.535278 51.9702 0.535278C46.7346 0.535278 42.0098 2.0038 37.8597 5.26007C35.625 6.72859 33.6457 8.4525 32.3687 10.8149C30.5809 13.2411 29.5594 16.0505 29.2401 19.0514C28.857 20.9668 28.2824 22.8823 29.1763 24.7977C28.2824 26.5217 29.1124 27.9902 29.8148 29.5225C29.6871 31.6934 30.3255 33.6088 31.6664 35.2689C32.3049 36.2266 32.9433 37.1844 33.5818 38.1421C33.7095 39.7383 35.2419 40.313 36.0719 41.3984C39.4559 44.0162 42.9676 46.5063 47.5008 46.6978C51.5233 47.9748 55.2903 46.4424 59.0574 45.357C60.0151 45.4208 60.6536 44.7185 61.356 44.2716C63.2714 44.3993 64.6761 43.5054 65.8254 42.0369C64.1015 43.1223 62.186 43.25 60.3344 43.6969C59.5682 43.9523 58.8659 43.7608 58.3551 44.3354Z" fill="white"/>
<path d="M122.204 12.7941C121.565 12.6664 120.863 12.4749 120.224 12.3472C117.032 11.3256 113.839 10.8787 110.583 11.8364C108.987 12.0279 107.391 11.6449 105.858 12.2833C103.751 11.6449 102.985 12.1556 102.985 14.3265C102.985 20.2006 103.049 26.0746 103.049 31.9487C102.985 32.0764 102.921 32.2041 102.921 32.3957C101.9 36.3543 102.602 40.3767 102.538 44.3992C102.538 45.4208 103.624 45.9954 104.837 45.8677C106.178 45.74 106.816 45.0377 106.752 43.6969C106.688 39.1636 106.688 34.6304 106.688 30.0971C106.752 29.7779 106.752 29.4586 106.816 29.2032C109.498 28.6924 112.116 27.9262 114.925 28.1816C116.393 28.3093 117.798 28.8201 119.33 28.6924C120.735 28.5647 121.565 28.0539 121.629 26.5854C121.693 25.1808 120.991 24.3507 119.522 24.2869C118.884 24.2869 118.309 24.0953 117.67 24.0315C114.35 23.6484 110.966 23.4568 107.774 24.8615C107.582 24.7977 107.455 24.7338 107.263 24.7338C107.263 22.0522 107.327 19.3705 107.327 16.6889C111.924 15.4758 116.585 15.1565 121.182 16.4974C122.651 16.8804 123.544 16.4974 123.928 15.1565C124.247 13.8796 123.481 13.1134 122.204 12.7941Z" fill="white"/>
<path d="M96.1534 10.0487C93.791 9.09093 91.3009 8.58014 88.6832 8.51629C85.4907 8.3886 82.3621 9.21863 79.1697 9.28248C76.0411 9.28248 75.658 9.28248 75.658 12.3472C75.658 17.902 75.658 23.4569 75.658 29.0755C74.828 33.5449 75.2111 38.0782 75.0834 42.5476C75.0834 44.08 75.0834 45.74 77.1904 45.8039C79.2974 45.8039 79.3613 44.2077 79.3613 42.6114C79.3613 38.3336 79.3613 33.9919 79.3613 29.714C79.3613 28.9478 79.2336 28.1178 80.319 27.8624C83.5114 27.0324 86.64 26.1385 90.024 26.9685C91.4286 27.3516 92.8333 27.2878 94.238 26.9047C95.4511 26.5854 95.8342 25.7554 95.6427 24.6061C95.4511 23.5207 94.8126 23.0099 93.7272 22.8184C89.577 22.2437 85.363 21.9883 81.2767 22.9461C79.5528 23.3292 79.8082 22.6907 79.8082 21.733C79.8082 19.1152 79.872 16.4974 79.872 13.8796C84.7884 12.7303 89.7686 12.1557 94.6211 13.8796C96.2173 14.4542 97.175 14.135 97.8135 12.7941C98.7074 11.0702 97.175 10.4318 96.1534 10.0487Z" fill="white"/>
<path d="M68.1877 27.1601C66.0807 26.3301 64.2291 24.9254 62.3137 23.7761C61.6113 22.7546 60.3982 22.4992 59.3766 21.8607C58.7382 21.9245 58.0997 21.9884 57.4612 22.1161C59.3128 22.1161 60.2705 23.7761 61.8029 24.2869C63.3991 25.3085 64.9315 26.3301 66.5277 27.3517C67.1023 27.5432 67.677 27.7986 68.1877 27.1601Z" fill="white"/>
<path d="M68.5709 28.054C69.1455 28.1178 69.784 28.1817 70.3586 28.1817C70.9333 27.9263 71.8272 28.4371 72.2741 27.607C70.9333 27.4155 69.5925 27.2878 68.2516 27.0963C68.3155 27.4793 68.4432 27.7347 68.5709 28.054Z" fill="white"/>
<path d="M35.8165 16.6251C34.9865 17.519 33.7095 18.1574 33.5179 19.626C34.6672 18.7959 35.6249 17.9021 36.3273 16.6889C36.8381 15.7312 37.3489 14.8373 37.8596 13.8796C40.2859 10.8149 41.3075 10.4318 43.9891 11.581C44.6276 12.3472 45.2661 13.1134 45.9684 13.8796C46.6708 14.965 47.2454 16.0504 48.0116 17.0082C50.6932 20.3921 51.5871 20.3921 54.6518 17.1997C56.3119 15.6035 58.5466 15.6035 60.6536 15.2204C58.7381 14.8373 56.8227 14.7096 55.0349 15.6674C54.8434 15.9227 54.7157 16.1781 54.5241 16.4335C51.0763 19.2429 50.9486 19.179 48.3308 15.6674C47.7562 14.8373 47.0538 14.0711 46.4154 13.305C45.9046 12.2195 45.1384 11.3895 44.053 10.8787C42.2014 9.41019 40.669 9.60173 38.6897 11.3895C38.3066 12.028 37.8596 12.6665 37.4766 13.3688C36.9019 14.4542 36.3273 15.5397 35.8165 16.6251Z" fill="white"/>
<path d="M56.1203 33.098C55.0987 33.2257 54.141 33.6726 53.1194 33.928C52.9917 34.375 52.864 34.8219 52.7363 35.2688C54.0133 36.7374 55.4818 36.035 56.8865 35.5242C57.4611 35.2688 57.9719 34.6942 57.8442 33.9919C57.6527 33.098 56.8226 32.9703 56.1203 33.098Z" fill="white"/>
<path d="M69.4008 32.9065C67.9961 31.9488 67.9961 29.3948 65.5699 29.6502C64.2291 29.5864 63.4629 30.2249 63.2713 31.5018C62.8244 32.0126 62.3775 32.2042 61.5474 32.1403C58.9296 31.8849 58.1635 32.9703 58.8019 35.7797C58.7381 36.5459 59.185 36.9928 59.8235 37.3121C59.9512 37.3121 60.1428 37.3759 60.2705 37.3759C61.292 37.3759 62.0582 36.9928 62.2498 35.8435C63.2075 35.0774 61.9305 33.3534 63.5267 32.7788C63.1437 34.2473 64.2929 34.0558 65.0591 33.9919C65.7614 33.9281 66.1445 33.8642 66.5276 34.6304C67.0384 35.652 67.8046 36.6097 69.0816 35.9074C70.4224 35.1412 70.167 33.9919 69.4008 32.9065Z" fill="white"/>
<path d="M65.506 27.6708C64.2929 28.1816 63.0798 28.1178 61.8028 28.0539C60.8451 26.7769 60.2066 25.2446 58.8019 24.3507C57.9081 23.393 56.8226 22.7545 55.5457 22.4352C54.7156 22.4352 53.8856 22.3714 53.0556 22.3714C51.8425 22.3075 50.5655 21.2221 49.3524 22.4352C48.9693 22.3714 48.4585 22.8822 48.1392 22.3075C48.65 21.0944 48.0115 20.3282 47.1177 19.7536C46.2238 19.179 45.3299 19.3705 44.6276 20.1367C44.3083 20.4559 43.9252 20.4559 43.5421 20.3282C40.9243 18.0935 39.5197 18.0297 37.285 19.9451C36.1357 20.9029 34.4118 21.1583 33.9648 22.8822C34.1564 22.8822 34.3479 22.946 34.4756 22.946C36.1357 22.946 37.4127 22.3714 37.7319 20.5836C37.7958 20.5836 37.7958 20.6475 37.8596 20.6475C39.2643 20.3282 40.7328 20.1367 42.1375 20.3921C42.0736 20.4559 42.0098 20.5198 41.9459 20.6475C41.499 20.839 41.2436 21.2221 41.2436 21.6691C41.3074 21.7329 41.3074 21.7968 41.3713 21.7968C40.1582 22.2437 40.1582 23.0737 40.7328 24.0953C41.499 24.7338 42.329 25.3723 43.4144 25.2446C43.5421 25.7554 43.2867 26.3939 43.8614 26.7769C43.7337 27.0323 43.606 27.2877 43.4783 27.5431C41.8821 27.7985 40.7966 28.9478 39.6474 29.9694C39.3281 30.2886 39.0089 30.6079 38.6258 30.9271C37.6681 31.6294 36.3272 31.6294 35.3695 32.7787C40.0943 33.8641 44.6914 34.1834 49.2885 33.4172C50.0547 33.4172 50.8209 33.4172 51.5871 33.3534C55.0987 32.2679 57.9719 29.6501 61.739 29.1393C63.0798 28.6924 64.7399 29.3947 65.506 27.6708ZM52.6725 29.5224C52.7363 29.4586 52.8002 29.4586 52.8002 29.4586V29.5224C52.7363 29.5224 52.7363 29.5224 52.6725 29.5224Z" fill="white"/>
</svg>
