<svg width="72" height="64" viewBox="0 0 72 64" fill="none" xmlns="http://www.w3.org/2000/svg">
<path d="M59.4 42C53.9325 42 49.5 46.925 49.5 53C49.5 59.075 53.9325 64 59.4 64C64.8675 64 69.3 59.075 69.3 53C69.3 46.925 64.8675 42 59.4 42ZM59.4 56C57.9116 56 56.7 54.6538 56.7 53C56.7 51.3463 57.9116 50 59.4 50C60.8884 50 62.1 51.3463 62.1 53C62.1 54.6538 60.8884 56 59.4 56ZM68.4 20H61.2V14.975C61.2 13.21 61.7288 11.505 62.6794 10.12C63.1766 9.395 63.0788 8.3625 62.5309 7.68375L60.0975 4.6625C59.3483 3.73125 58.0365 3.7975 57.3187 4.76C55.1903 7.6125 54 11.2263 54 14.975V20H42.4879L36.1777 3.6425C35.7632 2.56104 35.0715 1.63901 34.1887 0.991305C33.3059 0.343597 32.271 -0.00115615 31.2131 2.91301e-06H16.2C13.2221 2.91301e-06 10.8 2.69125 10.8 6V24.315C9.82912 23.4738 8.442 23.5075 7.54987 24.4988L4.05 28.3875C3.08362 29.4613 3.08362 31.2025 4.05 32.2763L4.61925 32.9088C4.05788 34.0663 3.61125 35.2613 3.27937 36.4988H2.475C1.10812 36.4988 0 37.73 0 39.2488V44.7488C0 46.2675 1.10812 47.4988 2.475 47.4988H3.27825C3.61125 48.7375 4.05675 49.9313 4.61812 51.09L4.04887 51.7225C3.0825 52.7963 3.0825 54.5375 4.04887 55.6113L7.54875 59.5C8.51512 60.5738 10.0822 60.5738 11.0486 59.5L11.6179 58.8675C12.6596 59.4913 13.7351 59.9875 14.8489 60.3563V61.25C14.8489 62.7688 15.957 64 17.3239 64H22.2739C23.6408 64 24.7489 62.7688 24.7489 61.25V60.3575C25.8626 59.9888 26.9381 59.4925 27.9799 58.8688L28.5491 59.5013C29.5155 60.575 31.0826 60.575 32.049 59.5013L35.5489 55.6125C36.5152 54.5388 36.5152 52.7975 35.5489 51.7238L34.9796 51.0913C35.541 49.9338 35.9876 48.7388 36.3195 47.5013H37.125C38.4919 47.5013 39.6 46.27 39.6 44.7513V44.0013H48.6608C51.1256 40.3775 54.9967 38.0013 59.4 38.0013C61.497 38.0013 63.4579 38.5775 65.2275 39.5263L70.9447 33.1738C71.6198 32.4238 71.9989 31.4063 71.9989 30.345V24C72 21.7913 70.3879 20 68.4 20ZM19.8 52C14.8297 52 10.8 47.5225 10.8 42C10.8 36.4775 14.8297 32 19.8 32C24.7703 32 28.8 36.4775 28.8 42C28.8 47.5225 24.7703 52 19.8 52ZM22.275 20H18V8H30.0251L34.6545 20H22.275Z" fill="#810102"/>
</svg>
