<svg width="72" height="64" viewBox="0 0 72 64" fill="none" xmlns="http://www.w3.org/2000/svg">
<path d="M0 6C0 2.68625 2.41762 0 5.4 0H37.8C40.7812 0 43.2 2.68625 43.2 6V58C43.2 61.3125 40.7812 64 37.8 64H27V54C27 50.6875 24.5812 48 21.6 48C18.6187 48 16.2 50.6875 16.2 54V64H5.4C2.41762 64 0 61.3125 0 58V6ZM9 28C8.0055 28 7.2 28.9 7.2 30V34C7.2 35.1 8.0055 36 9 36H12.6C13.59 36 14.4 35.1 14.4 34V30C14.4 28.9 13.59 28 12.6 28H9ZM18 34C18 35.1 18.81 36 19.8 36H23.4C24.39 36 25.2 35.1 25.2 34V30C25.2 28.9 24.39 28 23.4 28H19.8C18.81 28 18 28.9 18 30V34ZM30.6 28C29.61 28 28.8 28.9 28.8 30V34C28.8 35.1 29.61 36 30.6 36H34.2C35.19 36 36 35.1 36 34V30C36 28.9 35.19 28 34.2 28H30.6ZM7.2 18C7.2 19.1 8.0055 20 9 20H12.6C13.59 20 14.4 19.1 14.4 18V14C14.4 12.9 13.59 12 12.6 12H9C8.0055 12 7.2 12.9 7.2 14V18ZM19.8 12C18.81 12 18 12.9 18 14V18C18 19.1 18.81 20 19.8 20H23.4C24.39 20 25.2 19.1 25.2 18V14C25.2 12.9 24.39 12 23.4 12H19.8ZM28.8 18C28.8 19.1 29.61 20 30.6 20H34.2C35.19 20 36 19.1 36 18V14C36 12.9 35.19 12 34.2 12H30.6C29.61 12 28.8 12.9 28.8 14V18ZM72 24V26C72 31.525 67.9725 36 63 36H61.2V34C61.2 28.475 65.2275 24 70.2 24H72ZM63 50H61.2V48C61.2 42.475 65.2275 38 70.2 38H72V40C72 45.525 67.9725 50 63 50ZM63 64H61.2V62C61.2 56.475 65.2275 52 70.2 52H72V54C72 59.525 67.9725 64 63 64ZM57.6 62V64H55.8C50.8275 64 46.8 59.525 46.8 54V52H48.6C53.5725 52 57.6 56.475 57.6 62ZM55.8 50C50.8275 50 46.8 45.525 46.8 40V38H48.6C53.5725 38 57.6 42.475 57.6 48V50H55.8ZM57.6 34V36H55.8C50.8275 36 46.8 31.525 46.8 26V24H48.6C53.5725 24 57.6 28.475 57.6 34ZM59.4 4C60.8962 4 62.1 5.34375 62.1 7V20C62.1 21.6625 60.8962 23 59.4 23C57.9037 23 56.7 21.6625 56.7 20V7C56.7 5.34375 57.9037 4 59.4 4ZM70.2 16C70.2 17.6625 68.9962 19 67.5 19C66.0037 19 64.8 17.6625 64.8 16V12C64.8 10.3438 66.0037 9 67.5 9C68.9962 9 70.2 10.3438 70.2 12V16ZM51.3 9C52.7962 9 54 10.3438 54 12V16C54 17.6625 52.7962 19 51.3 19C49.8037 19 48.6 17.6625 48.6 16V12C48.6 10.3438 49.8037 9 51.3 9Z" fill="#810102"/>
</svg>
