<svg width="64" height="64" viewBox="0 0 64 64" fill="none" xmlns="http://www.w3.org/2000/svg">
<path d="M32 10C32 11.105 31.1 12 30 12C24.475 12 20 7.5225 20 2C20 0.8955 20.9 0 22 0C27.525 0 32 4.4775 32 10ZM13 2C14.6625 2 16 3.34375 16 5C16 6.65625 14.6625 8 13 8H7C5.34375 8 4 6.65625 4 5C4 3.34375 5.34375 2 7 2H13ZM17 11C18.6625 11 20 12.3438 20 14C20 15.6625 18.6625 17 17 17H3C1.34375 17 0 15.6625 0 14C0 12.3438 1.34375 11 3 11H17ZM4 23C4 21.3375 5.34375 20 7 20H13C14.6625 20 16 21.3375 16 23C16 24.6625 14.6625 26 13 26H7C5.34375 26 4 24.6625 4 23ZM34 2C34 0.8955 34.9 0 36 0C41.525 0 46 4.4775 46 10C46 11.105 45.1 12 44 12C38.475 12 34 7.5225 34 2ZM60 10C60 11.105 59.1 12 58 12C52.475 12 48 7.5225 48 2C48 0.8955 48.9 0 50 0C55.525 0 60 4.4775 60 10ZM50 28C48.9 28 48 27.1 48 26C48 20.475 52.475 16 58 16C59.1 16 60 16.9 60 18C60 23.525 55.525 28 50 28ZM44 16C45.1 16 46 16.9 46 18C46 23.525 41.525 28 36 28C34.9 28 34 27.1 34 26C34 20.475 38.475 16 44 16ZM22 28C20.9 28 20 27.1 20 26C20 20.475 24.475 16 30 16C31.1 16 32 16.9 32 18C32 23.525 27.525 28 22 28ZM0 38C0 34.6875 2.68625 32 6 32H58C61.3125 32 64 34.6875 64 38V58C64 61.3125 61.3125 64 58 64H6C2.68625 64 0 61.3125 0 58V38ZM6 58H12C12 54.6875 9.31375 52 6 52V58ZM6 38V44C9.31375 44 12 41.3125 12 38H6ZM58 52C54.6875 52 52 54.6875 52 58H58V52ZM52 38C52 41.3125 54.6875 44 58 44V38H52ZM32 40C27.5875 40 24 43.5875 24 48C24 52.4125 27.5875 56 32 56C36.4125 56 40 52.4125 40 48C40 43.5875 36.4125 40 32 40Z" fill="#810102"/>
</svg>
